<?xml version="1.0" encoding="UTF-8" standalone="no"?>
<svg
   width="24"
   height="24"
   viewBox="0 0 24 24"
   version="1.1"
   id="svg181"
   sodipodi:docname="comment-svgrepo-com.svg"
   xmlns:inkscape="http://www.inkscape.org/namespaces/inkscape"
   xmlns:sodipodi="http://sodipodi.sourceforge.net/DTD/sodipodi-0.dtd"
   xmlns="http://www.w3.org/2000/svg"
   xmlns:svg="http://www.w3.org/2000/svg">
  <defs
     id="defs185" />
  <sodipodi:namedview
     id="namedview183"
     pagecolor="#ffffff"
     bordercolor="#000000"
     borderopacity="0.25"
     inkscape:showpageshadow="2"
     inkscape:pageopacity="0.0"
     inkscape:pagecheckerboard="0"
     inkscape:deskcolor="#d1d1d1"
     showgrid="false" />
  <!-- Uploaded to SVGRepo https://www.svgrepo.com -->
  <title
     id="title174">ic_fluent_comment_24_regular</title>
  <desc
     id="desc176">Created with Sketch.</desc>
  <g
     id="ðŸ”-Product-Icons"
     stroke="none"
     stroke-width="1"
     fill="none"
     fill-rule="evenodd"
     style="opacity:1;fill:#85a3a5;fill-opacity:1;fill-rule:evenodd;stroke-width:1;stroke-dasharray:none">
    <g
       id="ic_fluent_comment_24_regular"
       fill="#212121"
       fill-rule="nonzero"
       style="fill:#85a3a5;fill-opacity:1;fill-rule:evenodd;stroke-width:1;stroke-dasharray:none">
      <path
         d="M 5.25,18 C 3.4550746,18 2,16.544925 2,14.75 V 6.25 C 2,4.4550746 3.4550746,3 5.25,3 h 13.5 C 20.544925,3 22,4.4550746 22,6.25 v 8.5 C 22,16.544925 20.544925,18 18.75,18 H 13.012485 L 7.9986815,21.750679 C 7.4458514,22.164165 6.6624979,22.051204 6.2490125,21.498373 6.0873576,21.282241 6,21.019591 6,20.749906 L 5.9992143,18 Z m 7.263515,-1.5 H 18.75 c 0.966498,0 1.75,-0.783502 1.75,-1.75 V 6.25 C 20.5,5.2835017 19.716498,4.5 18.75,4.5 H 5.25 C 4.2835017,4.5 3.5,5.2835017 3.5,6.25 v 8.5 c 0,0.966498 0.7835017,1.75 1.75,1.75 H 7.4987857 L 7.499,17.249786 7.4998574,20.25057 Z"
         id="ðŸŽ¨-Color"
         style="fill:#85a3a5;fill-opacity:1;fill-rule:evenodd;stroke-width:1;stroke-dasharray:none" />
    </g>
  </g>
  <path
     style="opacity:1;fill:#0e373b;fill-opacity:1;fill-rule:evenodd;stroke-width:0.101695;stroke-dasharray:none"
     d="M 9.7797935,4.2306674 C 8.066694,4.2875125 6.3298209,4.1249497 4.6306938,4.3756621 3.7848322,4.6757013 3.092466,5.5714855 3.2547057,6.4913775 c 0.033214,2.8378553 -0.1512305,5.6857825 0.060906,8.5177585 0.099714,0.99746 1.0450091,1.787662 2.0480807,1.700153 0.6371822,0.02569 1.2751495,0.0097 1.9126581,0.01436 0.02768,1.15335 -0.053904,2.328602 0.039194,3.468839 0.3595326,0.53495 0.9111787,-0.316456 1.2908343,-0.479612 1.3356037,-0.992115 2.6681512,-1.988331 4.0018042,-2.983069 2.215732,-0.05289 4.444089,0.102899 6.652476,-0.104277 1.056478,-0.176476 1.536061,-1.347075 1.488679,-2.315347 0.05786,-2.873918 0.02759,-5.7607874 -0.03837,-8.6279361 C 20.348556,4.8498008 19.528849,4.1942951 18.583081,4.2765158 15.649795,4.1947901 12.713966,4.2444464 9.7797935,4.2306674 Z"
     id="path3183" />
  <g
     id="g304"
     transform="matrix(0.53163968,0,0,0.51249789,8.3489859,8.8967981)"
     style="fill:#999999">
	<path
   d="M 11.313,7.422 11.204,7.326 C 11.739,5.406 11.252,3.26 9.743,1.75 8.243,0.254 6.123,-0.236 4.214,0.281 L 7.446,3.513 6.598,6.68 3.431,7.527 0.197,4.297 c -0.514,1.908 -0.025,4.029 1.475,5.529 1.571,1.572 3.835,2.033 5.814,1.389 l 0.018,0.018 13.3,13.299 c 0.526,0.525 1.214,0.791 1.904,0.791 0.69,0 1.377,-0.266 1.906,-0.791 1.053,-1.049 1.053,-2.754 0,-3.811 z M 22.94,24.08 c -0.566,0 -1.027,-0.461 -1.027,-1.029 0,-0.57 0.461,-1.029 1.027,-1.029 0.57,0 1.03,0.459 1.03,1.029 0.001,0.568 -0.459,1.029 -1.03,1.029 z"
   id="path272"
   style="fill:#999999" />

	<g
   id="g274"
   style="fill:#999999">
	</g>

	<g
   id="g276"
   style="fill:#999999">
	</g>

	<g
   id="g278"
   style="fill:#999999">
	</g>

	<g
   id="g280"
   style="fill:#999999">
	</g>

	<g
   id="g282"
   style="fill:#999999">
	</g>

	<g
   id="g284"
   style="fill:#999999">
	</g>

	<g
   id="g286"
   style="fill:#999999">
	</g>

	<g
   id="g288"
   style="fill:#999999">
	</g>

	<g
   id="g290"
   style="fill:#999999">
	</g>

	<g
   id="g292"
   style="fill:#999999">
	</g>

	<g
   id="g294"
   style="fill:#999999">
	</g>

	<g
   id="g296"
   style="fill:#999999">
	</g>

	<g
   id="g298"
   style="fill:#999999">
	</g>

	<g
   id="g300"
   style="fill:#999999">
	</g>

	<g
   id="g302"
   style="fill:#999999">
	</g>

</g>
</svg>
