<?xml version="1.0" encoding="utf-8"?>
<!-- Generator: Adobe Illustrator 18.1.1, SVG Export Plug-In . SVG Version: 6.00 Build 0)  -->
<!DOCTYPE svg PUBLIC "-//W3C//DTD SVG 1.1//EN" "http://www.w3.org/Graphics/SVG/1.1/DTD/svg11.dtd" [
	<!ENTITY ns_flows "http://ns.adobe.com/Flows/1.0/">
	<!ENTITY ns_extend "http://ns.adobe.com/Extensibility/1.0/">
	<!ENTITY ns_ai "http://ns.adobe.com/AdobeIllustrator/10.0/">
	<!ENTITY ns_graphs "http://ns.adobe.com/Graphs/1.0/">
]>
<svg version="1.1" xmlns:x="&ns_extend;" xmlns:i="&ns_ai;" xmlns:graph="&ns_graphs;"
	 xmlns="http://www.w3.org/2000/svg" xmlns:xlink="http://www.w3.org/1999/xlink" xmlns:a="http://ns.adobe.com/AdobeSVGViewerExtensions/3.0/"
	 x="0px" y="0px" viewBox="0 0 600 600" enable-background="new 0 0 600 600" xml:space="preserve">
<g id="BG_blue">
	<path fill="#A9A9CE" d="M550,500H110c-33.1,0-60-26.9-60-60V110c0-33.1,26.9-60,60-60h380c33.1,0,60,26.9,60,60V500z"/>
</g>
<g id="BG_blue_kopie">
	<path fill="#7172A3" d="M154.6,50H110c-33.1,0-60,26.9-60,60v330c0,33.1,26.9,60,60,60l340.2-0.1L154.6,50z"/>
</g>
<g id="Layer_1_kopie">
	<g id="Layer_4">
		<path display="none" fill="#568591" d="M227.3,421.1c31.2,17.9,61.4,26.1,102.2,26.1c106.9,0,193.5-71.6,193.5-160
			c0-88.4-86.7-160-193.5-160S136,198.8,136,287.2c0,40.9,18.6,78.1,49.1,106.4"/>
		<path fill="#B5DCF3" d="M306,131.5c-106.9,0-193.5,71.6-193.5,160c0,40.9,18.6,78.1,49.1,106.4l-39.8,73.8l74.3-48.6
			c31.2,17.9,69.1,28.4,110,28.4c106.9,0,193.5-71.6,193.5-160C499.5,203.1,412.9,131.5,306,131.5z"/>
	</g>
	<g>
		<g display="none">
			<polygon display="inline" fill="#FFD083" stroke="#000000" stroke-width="11.9741" stroke-miterlimit="10" points="162.5,277 
				98.3,172.3 220.9,184.9 523.9,364.2 468.4,458 			"/>
			
				<path display="inline" fill="none" stroke="#000000" stroke-width="5.987" stroke-linecap="round" stroke-linejoin="round" stroke-miterlimit="10" d="
				M496.6,346.5l-56,92.8L162.9,275.1c56.2,33.9,80.5-14.4,35.5-41.5c47.8,28.9,65.5-24.1,20.5-51.3L496.6,346.5z"/>
			<path display="inline" fill="#FFFFFF" stroke="#000000" stroke-width="11.9741" stroke-miterlimit="10" d="M532.6,369.3
				c14.7,9,19,28.4,10.1,43.2l-25.9,43.7c-3.6,6-9.7,10.2-16.5,11.9c-6.8,1.7-16.1-0.6-22.1-4.2l-35-20.7l55.5-93.8L532.6,369.3z"/>
			
				<line display="inline" fill="none" stroke="#000000" stroke-width="8.9806" stroke-miterlimit="10" x1="215.4" y1="242.9" x2="470.6" y2="393.9"/>
			<polygon display="inline" points="157,177.2 127.4,225.2 100.3,173.5 			"/>
		</g>
		<g>
			<g>
				<polygon fill="#74A3AF" points="296.1,374.3 311.6,397.9 255.4,400.3 				"/>
				<polygon fill="#74A3AF" points="393.7,310.1 409.2,333.7 435.2,281.8 				"/>
			</g>
			<g>
				<polygon fill="#74A3AF" points="231.6,275.8 215.7,251.6 191,301.8 				"/>
				<polygon fill="#74A3AF" points="329.2,211.6 313.2,187.4 371.1,184.1 				"/>
			</g>
		</g>
		<g>
			<g>
				<polygon fill="#F8E0B7" points="281.2,136.9 164.5,65.1 181.3,201.2 227.1,268.9 324.1,203.8 				"/>
				<polygon fill="#230F23" points="164,64.2 171.7,123.3 214.2,95.6 				"/>
			</g>
			<path fill="#F7A730" d="M281.2,136.9L281.2,136.9c16.3,32.1-14.6,63.2-41.8,41.8c8.5,34.2-34.4,50.8-58.1,22.5
				c0,0,106.7,162.2,177.6,269.9l99.3-65.3L281.2,136.9z"/>
			<path fill="#F08600" d="M239.4,178.7c8.5,34.2-34.4,50.8-58.1,22.5c0,0,106.7,162.2,177.6,269.9l50.2-33L239.4,178.7z"/>
			<path fill="#F8E0B7" d="M487.8,450.8c10.1,15.8,4.5,37-11.2,47.1l-42.7,28c-12.6,8.1-34.2,7.5-44.6-8.7l-30.4-46.2l99.3-65.3
				L487.8,450.8z"/>
		</g>
		<polygon fill="#B5DCF3" points="389.3,172.1 172.2,314.9 236.7,413.4 453.7,270.6 		"/>
		
			<line display="none" fill="none" stroke="#568591" stroke-width="8.9806" stroke-linecap="round" stroke-miterlimit="10" x1="417.1" y1="249.9" x2="311.1" y2="429"/>
		
			<line display="none" fill="none" stroke="#568591" stroke-width="8.9806" stroke-linecap="round" stroke-miterlimit="10" x1="315.1" y1="184.2" x2="209.2" y2="363.3"/>
	</g>
	<path fill="none" d="M470.7,546.8"/>
	<path fill="none" stroke="#000000" stroke-width="14" stroke-miterlimit="10" d="M96.4,496.9"/>
	<path fill="none" stroke="#000000" stroke-width="14" stroke-miterlimit="10" d="M544.4,202.9"/>
</g>
<g id="Yoast">
</g>
</svg>
