<svg height="200" viewBox="0 0 200 200" width="200" xmlns="http://www.w3.org/2000/svg"><path d="m5.25 18c-1.7949254 0-3.25-1.455075-3.25-3.25v-8.5c0-1.7949254 1.4550746-3.25 3.25-3.25h13.5c1.794925 0 3.25 1.4550746 3.25 3.25v8.5c0 1.794925-1.455075 3.25-3.25 3.25h-5.737515l-5.0138035 3.750679c-.5528301.413486-1.3361836.300525-1.749669-.252306-.1616549-.216132-.2490125-.478782-.2490125-.748467l-.0007857-2.749906zm7.263515-1.5h6.236485c.966498 0 1.75-.783502 1.75-1.75v-8.5c0-.9664983-.783502-1.75-1.75-1.75h-13.5c-.9664983 0-1.75.7835017-1.75 1.75v8.5c0 .966498.7835017 1.75 1.75 1.75h2.2487857l.0002143.749786.0008574 3.000784z" fill="#85a3a5" fill-rule="evenodd" transform="matrix(9.175 0 0 9.2632593 -11.35 -15.289778)"/><path d="m78.379605 23.899991c-15.717688.526571-31.653498-.97929-47.242989 1.343124-7.760781 2.779341-14.11324 11.077222-12.624691 19.59842.304738 26.28779-1.38754 52.668878.558812 78.902205.914876 9.23973 9.587959 16.55958 18.791141 15.74896 5.846146.23797 11.699496.0898 17.548638.13302.253964 10.68378-.494569 21.57044.359605 32.13275 3.298711 4.95538 8.360064-2.93141 11.843404-4.44277 12.254164-9.19021 24.480288-18.41842 36.716555-27.63294 20.32934-.48993 40.77452.95318 61.03647-.96594 9.69318-1.63475 14.09336-12.47831 13.65863-21.44766.53086-26.62185.25313-53.36367-.35205-79.922811-3.32513-7.711165-10.84594-13.783284-19.52336-13.021652-26.9129-.757046-53.84913-.297067-80.770165-.424706z" fill="#0e373b" fill-rule="evenodd" stroke-width=".937529"/><path d="m11.313 7.422-.109-.096c.535-1.92.048-4.066-1.461-5.576-1.5-1.496-3.62-1.986-5.529-1.469l3.232 3.232-.848 3.167-3.167.847-3.234-3.23c-.514 1.908-.025 4.029 1.475 5.529 1.571 1.572 3.835 2.033 5.814 1.389l.018.018 13.3 13.299c.526.525 1.214.791 1.904.791s1.377-.266 1.906-.791c1.053-1.049 1.053-2.754 0-3.811zm11.627 16.658c-.566 0-1.027-.461-1.027-1.029 0-.57.461-1.029 1.027-1.029.57 0 1.03.459 1.03 1.029.001.568-.459 1.029-1.03 1.029z" fill="#999" transform="matrix(4.8777941 0 0 4.7474008 65.251946 67.12357)"/></svg>