<svg xmlns="http://www.w3.org/2000/svg" viewBox="0 0 600 600" role="img" aria-hidden="true" focusable="false"><path fill="#A9A9CE" d="M550 500H110c-33.1 0-60-26.9-60-60V110c0-33.1 26.9-60 60-60h380c33.1 0 60 26.9 60 60v390z"/><path fill="#7172A3" d="M154.6 50H110c-33.1 0-60 26.9-60 60v330c0 33.1 26.9 60 60 60l340.2-.1L154.6 50z"/><path fill="#B5DCF3" d="M306 131.5c-106.9 0-193.5 71.6-193.5 160 0 40.9 18.6 78.1 49.1 106.4l-39.8 73.8 74.3-48.6c31.2 17.9 69.1 28.4 110 28.4 106.9 0 193.5-71.6 193.5-160-.1-88.4-86.7-160-193.6-160z"/><path d="M296.1 374.3l15.5 23.6-56.2 2.4zm97.6-64.2l15.5 23.6 26-51.9zm-162.1-34.3l-15.9-24.2-24.7 50.2zm97.6-64.2l-16-24.2 57.9-3.3z" fill="#74A3AF"/><path fill="#F8E0B7" d="M281.2 136.9L164.5 65.1l16.8 136.1 45.8 67.7 97-65.1z"/><path fill="#230F23" d="M164 64.2l7.7 59.1 42.5-27.7z"/><path fill="#F7A730" d="M281.2 136.9c16.3 32.1-14.6 63.2-41.8 41.8 8.5 34.2-34.4 50.8-58.1 22.5 0 0 106.7 162.2 177.6 269.9l99.3-65.3-177-268.9z"/><path fill="#F08600" d="M239.4 178.7c8.5 34.2-34.4 50.8-58.1 22.5 0 0 106.7 162.2 177.6 269.9l50.2-33-169.7-259.4z"/><path fill="#F8E0B7" d="M487.8 450.8c10.1 15.8 4.5 37-11.2 47.1l-42.7 28c-12.6 8.1-34.2 7.5-44.6-8.7L358.9 471l99.3-65.3 29.6 45.1z"/><path fill="#B5DCF3" d="M389.3 172.1L172.2 314.9l64.5 98.5 217-142.8z"/></svg>