<svg width="200" height="200" xmlns="http://www.w3.org/2000/svg"><g style="opacity:1;fill:#85a3a5;fill-opacity:1;fill-rule:evenodd;stroke-width:1;stroke-dasharray:none"><path d="M5.25 18A3.25 3.25 0 0 1 2 14.75v-8.5A3.25 3.25 0 0 1 5.25 3h13.5A3.25 3.25 0 0 1 22 6.25v8.5A3.25 3.25 0 0 1 18.75 18h-5.738L8 21.75a1.25 1.25 0 0 1-1.999-1V18Zm7.264-1.5h6.236a1.75 1.75 0 0 0 1.75-1.75v-8.5a1.75 1.75 0 0 0-1.75-1.75H5.25A1.75 1.75 0 0 0 3.5 6.25v8.5c0 .966.784 1.75 1.75 1.75h2.249v3.75Z" style="fill:#85a3a5;fill-opacity:1;fill-rule:evenodd;stroke-width:1;stroke-dasharray:none" transform="matrix(9.8 0 0 9.92116 -17.6 -27.763)" fill="#212121" fill-rule="nonzero"/></g><path style="opacity:1;fill:#0e373b;fill-opacity:1;fill-rule:evenodd;stroke-width:1.00275;stroke-dasharray:none" d="M78.242 14.21c-16.788.564-33.81-1.05-50.461 1.438-8.29 2.977-15.075 11.864-13.485 20.99.326 28.155-1.482 56.41.597 84.507.977 9.896 10.241 17.735 20.071 16.867 6.245.255 12.497.096 18.744.143.271 11.442-.528 23.102.384 34.414 3.524 5.308 8.93-3.14 12.65-4.758 13.09-9.843 26.148-19.726 39.218-29.595 21.714-.525 43.552 1.02 65.194-1.035 10.354-1.75 15.054-13.364 14.59-22.97.567-28.513.27-57.155-.377-85.6-3.551-8.259-11.584-14.762-20.853-13.946-28.746-.811-57.517-.319-86.272-.455Z"/><g style="fill:#999"><path d="m11.313 7.422-.109-.096A5.704 5.704 0 0 0 4.214.281l3.232 3.232-.848 3.167-3.167.847-3.234-3.23a5.705 5.705 0 0 0 1.475 5.529 5.714 5.714 0 0 0 5.814 1.389l.018.018 13.3 13.299a2.689 2.689 0 0 0 3.81 0 2.694 2.694 0 0 0 0-3.811zM22.94 24.08a1.029 1.029 0 1 1 .004-2.058 1.029 1.029 0 0 1-.004 2.058z" style="fill:#999" transform="matrix(5.21007 0 0 5.08457 64.22 60.503)"/></g></svg>